<svg xmlns="http://www.w3.org/2000/svg" width="18" height="18" fill="none"><path fill="#F90" d="M7.95 16.5q-.957 0-1.453-.572A1.93 1.93 0 0 1 6 14.625q0-.487.216-.947.215-.46.665-.76.412-.262.666-.674.253-.413.347-.881l-.225-.113a1.2 1.2 0 0 1-.206-.131l-1.726.619a7 7 0 0 1-.618.187Q4.819 12 4.5 12q-1.182 0-2.09-1.031Q1.5 9.937 1.5 7.95q0-.957.572-1.453T3.356 6q.487 0 .957.216.468.215.768.665.263.412.675.666.412.253.882.347l.112-.225q.056-.113.131-.206l-.618-1.726a7 7 0 0 1-.188-.618Q6 4.819 6 4.519q0-1.2 1.031-2.11Q8.063 1.5 10.05 1.5q.956 0 1.453.572T12 3.356q0 .487-.216.957a1.83 1.83 0 0 1-.665.768q-.412.263-.666.675a2.7 2.7 0 0 0-.347.882l.225.112q.112.056.207.131l1.724-.637q.32-.113.61-.178.29-.066.61-.066Q15 6 15.75 7.256t.75 2.794q0 .956-.6 1.453a2.04 2.04 0 0 1-2.24.281 1.9 1.9 0 0 1-.741-.665 2.1 2.1 0 0 0-.675-.666 2.7 2.7 0 0 0-.881-.347l-.113.225a1.2 1.2 0 0 1-.131.207l.619 1.724q.112.3.187.572t.075.572q.018 1.219-1.012 2.156-1.032.938-3.038.938M9 10.125q.469 0 .797-.328.328-.329.328-.797t-.328-.797A1.09 1.09 0 0 0 9 7.875q-.468 0-.797.328A1.09 1.09 0 0 0 7.875 9q0 .469.328.797.329.328.797.328m-.863-3.6q.113-.037.235-.066.122-.027.234-.046.15-.788.572-1.463t1.116-1.125a.55.55 0 0 0 .206-.469.33.33 0 0 0-.113-.253Q10.276 3 10.05 3q-.713 0-1.613.31-.9.309-.937 1.209 0 .168.047.319.047.15.084.28zM4.5 10.5q.262 0 .619-.131l1.406-.506a3 3 0 0 1-.066-.235 4 4 0 0 1-.046-.234 4.2 4.2 0 0 1-1.463-.572 3.6 3.6 0 0 1-1.125-1.116.5.5 0 0 0-.197-.15.64.64 0 0 0-.272-.056q-.169 0-.262.112Q3 7.726 3 7.95q0 1.013.384 1.781.385.77 1.116.769M7.95 15q.881 0 1.734-.356.854-.357.816-1.238 0-.15-.047-.281t-.084-.244l-.506-1.406a3 3 0 0 1-.235.066q-.122.028-.234.046-.15.789-.572 1.463-.421.675-1.116 1.125a.6.6 0 0 0-.16.197.4.4 0 0 0-.046.253q.02.15.112.262.094.113.338.113m6.619-4.5a.5.5 0 0 0 .3-.094q.13-.093.131-.356 0-.713-.3-1.622T13.481 7.5a1.3 1.3 0 0 0-.319.037q-.15.038-.28.075l-1.407.525q.037.113.066.235.028.122.046.234.789.15 1.463.572.675.422 1.125 1.116a.4.4 0 0 0 .169.15.5.5 0 0 0 .225.056"/></svg>