<svg xmlns="http://www.w3.org/2000/svg" width="20" height="21" fill="none"><path fill="#737373" d="M5 16.333v.834q0 .354-.24.593a.8.8 0 0 1-.593.24h-.834a.8.8 0 0 1-.593-.24.8.8 0 0 1-.24-.593V10.5l1.75-5q.125-.375.448-.604.323-.23.719-.23H7.5V3h5v1.667h2.083q.396 0 .72.229.322.23.447.604l1.75 5v6.667q0 .354-.24.593a.8.8 0 0 1-.593.24h-.834a.8.8 0 0 1-.593-.24.8.8 0 0 1-.24-.593v-.834zm-.167-7.5h10.334l-.875-2.5H5.708zm1.417 5q.52 0 .885-.364t.365-.886q0-.52-.365-.885a1.2 1.2 0 0 0-.885-.365q-.52 0-.885.365a1.2 1.2 0 0 0-.365.885q0 .522.365.886t.885.364m7.5 0q.52 0 .885-.364.366-.364.365-.886 0-.52-.365-.885a1.2 1.2 0 0 0-.885-.365q-.52 0-.885.365a1.2 1.2 0 0 0-.365.885q0 .522.365.886.364.364.885.364m-9.583.834h11.666V10.5H4.167z"/></svg>