<svg width="30" height="30" viewBox="0 0 30 30" fill="none" xmlns="http://www.w3.org/2000/svg">
<path d="M10.0313 22.5H13.7813V21.25H11.2813V20H13.7813V16.25H10.0313V17.5H12.5313V18.75H10.0313V22.5ZM18.7813 22.5H20.0313V16.25H18.7813V18.75H17.5313V16.25H16.2813V20H18.7813V22.5ZM26.2813 13.8125V23.75C26.2813 24.4375 26.0365 25.026 25.547 25.5156C25.0574 26.0052 24.4688 26.25 23.7813 26.25H6.28133C5.59383 26.25 5.00529 26.0052 4.5157 25.5156C4.02612 25.026 3.78133 24.4375 3.78133 23.75V13.8125C3.30216 13.375 2.93237 12.8125 2.67195 12.125C2.41154 11.4375 2.40633 10.6875 2.65633 9.875L3.96883 5.625C4.1355 5.08333 4.43237 4.63542 4.85945 4.28125C5.28654 3.92708 5.78133 3.75 6.34383 3.75H23.7188C24.2813 3.75 24.7709 3.92188 25.1876 4.26562C25.6042 4.60938 25.9063 5.0625 26.0938 5.625L27.4063 9.875C27.6563 10.6875 27.6511 11.4271 27.3907 12.0938C27.1303 12.7604 26.7605 13.3333 26.2813 13.8125ZM17.7813 12.5C18.3438 12.5 18.7709 12.3073 19.0626 11.9219C19.3542 11.5365 19.4688 11.1042 19.4063 10.625L18.7188 6.25H16.2813V10.875C16.2813 11.3125 16.4272 11.6927 16.7188 12.0156C17.0105 12.3385 17.3647 12.5 17.7813 12.5ZM12.1563 12.5C12.6355 12.5 13.0261 12.3385 13.3282 12.0156C13.6303 11.6927 13.7813 11.3125 13.7813 10.875V6.25H11.3438L10.6563 10.625C10.573 11.125 10.6824 11.5625 10.9845 11.9375C11.2865 12.3125 11.6772 12.5 12.1563 12.5ZM6.59383 12.5C6.96883 12.5 7.29695 12.3646 7.5782 12.0938C7.85945 11.8229 8.03133 11.4792 8.09383 11.0625L8.78133 6.25H6.34383L5.09383 10.4375C4.96883 10.8542 5.03654 11.3021 5.29695 11.7812C5.55737 12.2604 5.98966 12.5 6.59383 12.5ZM23.4688 12.5C24.073 12.5 24.5105 12.2604 24.7813 11.7812C25.0522 11.3021 25.1147 10.8542 24.9688 10.4375L23.6563 6.25H21.2813L21.9688 11.0625C22.0313 11.4792 22.2032 11.8229 22.4845 12.0938C22.7657 12.3646 23.0938 12.5 23.4688 12.5Z" fill="white"/>
</svg>
