<svg xmlns="http://www.w3.org/2000/svg" width="18" height="18" fill="none"><path fill="#F90" d="M7.838 11.625q.45.45 1.162.44t1.05-.515l4.2-6.3-6.3 4.2q-.507.338-.534 1.031-.03.694.422 1.144M9 3q1.107 0 2.128.31a6.9 6.9 0 0 1 1.922.927l-1.425.9A5.7 5.7 0 0 0 9 4.5q-2.493 0-4.247 1.753Q3 8.007 3 10.5q0 .788.216 1.556.214.77.609 1.444h10.35q.431-.713.628-1.481A6.4 6.4 0 0 0 15 10.425a5.4 5.4 0 0 0-.637-2.55l.9-1.425q.561.88.89 1.875.329.994.347 2.063a7.3 7.3 0 0 1-.244 2.043 7.8 7.8 0 0 1-.768 1.857q-.206.337-.563.524a1.6 1.6 0 0 1-.75.188H3.825q-.394 0-.75-.187a1.4 1.4 0 0 1-.562-.526A7.443 7.443 0 0 1 1.5 10.5q0-1.556.59-2.916.591-1.36 1.613-2.38a7.6 7.6 0 0 1 2.39-1.613A7.3 7.3 0 0 1 9 3"/></svg>