<svg xmlns="http://www.w3.org/2000/svg" width="18" height="18" fill="none"><path fill="#F90" d="M9.731 16.463v-1.5a6 6 0 0 0 1.528-.432q.741-.318 1.397-.806l1.088 1.088a8 8 0 0 1-1.894 1.115 7.4 7.4 0 0 1-2.119.534m5.063-2.738-1.05-1.05q.487-.62.787-1.36t.413-1.565h1.537a8.3 8.3 0 0 1-.572 2.166 6.8 6.8 0 0 1-1.115 1.809m.15-5.475a6.5 6.5 0 0 0-.413-1.584q-.3-.741-.787-1.341l1.05-1.05q.713.825 1.153 1.837t.534 2.138zM8.23 16.462q-2.869-.336-4.79-2.456Q1.519 11.888 1.519 9q0-2.907 1.922-5.025t4.79-2.438v1.5q-2.25.32-3.731 2.007T3.019 9q0 2.268 1.481 3.947 1.48 1.678 3.731 2.016zm4.463-12.187a6.8 6.8 0 0 0-1.425-.825 5.6 5.6 0 0 0-1.538-.413v-1.5a7 7 0 0 1 2.119.516q1.012.422 1.894 1.134zM9 12.75a22 22 0 0 1-2.044-1.969A3.53 3.53 0 0 1 6 8.325q0-1.275.872-2.175.871-.9 2.128-.9t2.128.9q.872.9.872 2.175 0 1.406-.956 2.456A22 22 0 0 1 9 12.75M9 9a.78.78 0 0 0 .572-.234.78.78 0 0 0 .234-.572q0-.319-.234-.563A.76.76 0 0 0 9 7.387a.76.76 0 0 0-.572.244.8.8 0 0 0-.234.563q0 .337.234.572A.78.78 0 0 0 9 9"/></svg>