<svg xmlns="http://www.w3.org/2000/svg" width="75" height="76" fill="none"><path fill="#F90" d="M50 22.375H18.75c-1.875 0-3.125 1.25-3.125 3.125v7.813h23.438c1.874 0 3.124 1.25 3.124 3.124v23.438H50c1.875 0 3.125-1.25 3.125-3.125V25.5c0-1.875-1.25-3.125-3.125-3.125M34.375 38h-25C7.5 38 6.25 39.25 6.25 41.125v25C6.25 68 7.5 69.25 9.375 69.25h25c1.875 0 3.125-1.25 3.125-3.125v-25C37.5 39.25 36.25 38 34.375 38m31.25-31.25h-37.5C26.25 6.75 25 8 25 9.875v7.813h29.688c1.874 0 3.124 1.25 3.124 3.125V50.5h7.813c1.875 0 3.125-1.25 3.125-3.125v-37.5C68.75 8 67.5 6.75 65.625 6.75"/></svg>