<svg width="30" height="30" viewBox="0 0 30 30" fill="none" xmlns="http://www.w3.org/2000/svg">
<path d="M1.3125 26.25V22.75C1.3125 22.0625 1.48958 21.4167 1.84375 20.8125C2.19792 20.2083 2.6875 19.75 3.3125 19.4375C4.375 18.8958 5.57292 18.4375 6.90625 18.0625C8.23958 17.6875 9.70833 17.5 11.3125 17.5C12.9167 17.5 14.3854 17.6875 15.7188 18.0625C17.0521 18.4375 18.25 18.8958 19.3125 19.4375C19.9375 19.75 20.4271 20.2083 20.7812 20.8125C21.1354 21.4167 21.3125 22.0625 21.3125 22.75V26.25H1.3125ZM11.3125 16.25C9.9375 16.25 8.76042 15.7604 7.78125 14.7812C6.80208 13.8021 6.3125 12.625 6.3125 11.25H6C5.8125 11.25 5.66146 11.1927 5.54688 11.0781C5.43229 10.9635 5.375 10.8125 5.375 10.625C5.375 10.4375 5.43229 10.2865 5.54688 10.1719C5.66146 10.0573 5.8125 10 6 10H6.3125C6.3125 9.0625 6.54167 8.21875 7 7.46875C7.45833 6.71875 8.0625 6.125 8.8125 5.6875V6.875C8.8125 7.0625 8.86979 7.21354 8.98438 7.32812C9.09896 7.44271 9.25 7.5 9.4375 7.5C9.625 7.5 9.77604 7.44271 9.89062 7.32812C10.0052 7.21354 10.0625 7.0625 10.0625 6.875V5.1875C10.25 5.125 10.4479 5.07812 10.6562 5.04688C10.8646 5.01562 11.0833 5 11.3125 5C11.5417 5 11.7604 5.01562 11.9688 5.04688C12.1771 5.07812 12.375 5.125 12.5625 5.1875V6.875C12.5625 7.0625 12.6198 7.21354 12.7344 7.32812C12.849 7.44271 13 7.5 13.1875 7.5C13.375 7.5 13.526 7.44271 13.6406 7.32812C13.7552 7.21354 13.8125 7.0625 13.8125 6.875V5.6875C14.5625 6.125 15.1667 6.71875 15.625 7.46875C16.0833 8.21875 16.3125 9.0625 16.3125 10H16.625C16.8125 10 16.9635 10.0573 17.0781 10.1719C17.1927 10.2865 17.25 10.4375 17.25 10.625C17.25 10.8125 17.1927 10.9635 17.0781 11.0781C16.9635 11.1927 16.8125 11.25 16.625 11.25H16.3125C16.3125 12.625 15.8229 13.8021 14.8438 14.7812C13.8646 15.7604 12.6875 16.25 11.3125 16.25ZM11.3125 13.75C12 13.75 12.5885 13.5052 13.0781 13.0156C13.5677 12.526 13.8125 11.9375 13.8125 11.25H8.8125C8.8125 11.9375 9.05729 12.526 9.54688 13.0156C10.0365 13.5052 10.625 13.75 11.3125 13.75ZM20.6875 18.75L20.5 17.8125C20.375 17.7708 20.2552 17.724 20.1406 17.6719C20.026 17.6198 19.9167 17.5417 19.8125 17.4375L18.9375 17.75L18.3125 16.625L19 16V15.25L18.3125 14.625L18.9375 13.5L19.8125 13.8125C19.8958 13.7292 20 13.6562 20.125 13.5938C20.25 13.5312 20.375 13.4792 20.5 13.4375L20.6875 12.5H21.9375L22.125 13.4375C22.25 13.4792 22.375 13.5312 22.5 13.5938C22.625 13.6562 22.7292 13.7292 22.8125 13.8125L23.6875 13.5L24.3125 14.625L23.625 15.25V16L24.3125 16.625L23.6875 17.75L22.8125 17.4375C22.7083 17.5417 22.599 17.6198 22.4844 17.6719C22.3698 17.724 22.25 17.7708 22.125 17.8125L21.9375 18.75H20.6875ZM21.3125 16.5625C21.5625 16.5625 21.7812 16.4688 21.9688 16.2812C22.1562 16.0938 22.25 15.875 22.25 15.625C22.25 15.375 22.1562 15.1562 21.9688 14.9688C21.7812 14.7812 21.5625 14.6875 21.3125 14.6875C21.0625 14.6875 20.8438 14.7812 20.6562 14.9688C20.4688 15.1562 20.375 15.375 20.375 15.625C20.375 15.875 20.4688 16.0938 20.6562 16.2812C20.8438 16.4688 21.0625 16.5625 21.3125 16.5625ZM23.5625 12.5L23.3125 11.1875C23.125 11.125 22.9531 11.0469 22.7969 10.9531C22.6406 10.8594 22.5 10.75 22.375 10.625L21.0625 11.0625L20.1875 9.5625L21.25 8.625C21.2083 8.52083 21.1875 8.4375 21.1875 8.375V7.875C21.1875 7.8125 21.2083 7.72917 21.25 7.625L20.1875 6.6875L21.0625 5.1875L22.375 5.625C22.5 5.5 22.6406 5.39062 22.7969 5.29688C22.9531 5.20312 23.125 5.125 23.3125 5.0625L23.5625 3.75H25.3125L25.5625 5.0625C25.75 5.125 25.9219 5.20312 26.0781 5.29688C26.2344 5.39062 26.375 5.5 26.5 5.625L27.8125 5.1875L28.6875 6.6875L27.625 7.625C27.6667 7.72917 27.6875 7.8125 27.6875 7.875V8.375C27.6875 8.4375 27.6667 8.52083 27.625 8.625L28.6875 9.5625L27.8125 11.0625L26.5 10.625C26.375 10.75 26.2344 10.8594 26.0781 10.9531C25.9219 11.0469 25.75 11.125 25.5625 11.1875L25.3125 12.5H23.5625ZM24.4375 9.6875C24.875 9.6875 25.2448 9.53646 25.5469 9.23438C25.849 8.93229 26 8.5625 26 8.125C26 7.6875 25.849 7.31771 25.5469 7.01562C25.2448 6.71354 24.875 6.5625 24.4375 6.5625C24 6.5625 23.6302 6.71354 23.3281 7.01562C23.026 7.31771 22.875 7.6875 22.875 8.125C22.875 8.5625 23.026 8.93229 23.3281 9.23438C23.6302 9.53646 24 9.6875 24.4375 9.6875Z" fill="white"/>
</svg>
