<svg width="101" height="100" viewBox="0 0 101 100" fill="none" xmlns="http://www.w3.org/2000/svg">
<path d="M10.4583 44.0625L27.9583 26.5625C28.9306 25.5903 30.0764 24.8958 31.3958 24.4792C32.7153 24.0625 34.0694 23.993 35.4583 24.2708L40.875 25.4167C37.125 29.8611 34.1736 33.8889 32.0208 37.5C29.8681 41.1111 27.7847 45.4861 25.7708 50.625L10.4583 44.0625ZM31.8125 53.5417C33.4097 48.5417 35.5799 43.8194 38.3229 39.375C41.066 34.9305 44.3819 30.7639 48.2708 26.875C54.3819 20.7639 61.3611 16.1979 69.2083 13.1771C77.0556 10.1562 84.3819 9.2361 91.1875 10.4167C92.3681 17.2222 91.4653 24.5486 88.4792 32.3958C85.4931 40.243 80.9444 47.2222 74.8333 53.3333C71.0139 57.1528 66.8472 60.4687 62.3333 63.2812C57.8194 66.0937 53.0625 68.2986 48.0625 69.8958L31.8125 53.5417ZM60.5625 41.0417C62.1597 42.6389 64.1215 43.4375 66.4479 43.4375C68.7743 43.4375 70.7361 42.6389 72.3333 41.0417C73.9306 39.4444 74.7292 37.4826 74.7292 35.1562C74.7292 32.8299 73.9306 30.868 72.3333 29.2708C70.7361 27.6736 68.7743 26.875 66.4479 26.875C64.1215 26.875 62.1597 27.6736 60.5625 29.2708C58.9653 30.868 58.1667 32.8299 58.1667 35.1562C58.1667 37.4826 58.9653 39.4444 60.5625 41.0417ZM57.6458 91.1458L50.9792 75.8333C56.1181 73.8194 60.5104 71.7361 64.1562 69.5833C67.8021 67.4305 71.8472 64.4792 76.2917 60.7292L77.3333 66.1458C77.6111 67.5347 77.5417 68.9062 77.125 70.2604C76.7083 71.6146 76.0139 72.7778 75.0417 73.75L57.6458 91.1458ZM17.125 66.875C19.5556 64.4444 22.5069 63.2118 25.9792 63.1771C29.4514 63.1423 32.4028 64.3403 34.8333 66.7708C37.2639 69.2014 38.4792 72.1528 38.4792 75.625C38.4792 79.0972 37.2639 82.0486 34.8333 84.4792C33.0972 86.2153 30.1979 87.7083 26.1354 88.9583C22.0729 90.2083 16.4653 91.3194 9.3125 92.2917C10.2847 85.1389 11.3958 79.5486 12.6458 75.5208C13.8958 71.493 15.3889 68.6111 17.125 66.875Z" fill="#FF9900"/>
</svg>
