<svg width="30" height="30" viewBox="0 0 30 30" fill="none" xmlns="http://www.w3.org/2000/svg">
<path d="M17.1875 21.25C17.6042 21.25 18.0104 21.1667 18.4062 21C18.8021 20.8333 19.1458 20.6042 19.4375 20.3125L20.6562 19.0938L19.3438 17.7812L18.125 19C18 19.125 17.8542 19.2135 17.6875 19.2656C17.5208 19.3177 17.3542 19.3438 17.1875 19.3438C17.0208 19.3438 16.8542 19.3177 16.6875 19.2656C16.5208 19.2135 16.375 19.125 16.25 19L15.0625 17.8125C14.7708 17.5208 14.4271 17.2969 14.0312 17.1406C13.6354 16.9844 13.2292 16.9062 12.8125 16.9062C12.3958 16.9062 11.9896 16.9844 11.5938 17.1406C11.1979 17.2969 10.8542 17.5208 10.5625 17.8125L9.34375 19.0312L10.6562 20.3438L11.875 19.125C12 19 12.1458 18.9115 12.3125 18.8594C12.4792 18.8073 12.6458 18.7812 12.8125 18.7812C12.9792 18.7812 13.1458 18.8073 13.3125 18.8594C13.4792 18.9115 13.625 19 13.75 19.125L14.9375 20.3125C15.2292 20.6042 15.5729 20.8333 15.9688 21C16.3646 21.1667 16.7708 21.25 17.1875 21.25ZM17.1875 17.5C17.6042 17.5 18.0104 17.4167 18.4062 17.25C18.8021 17.0833 19.1458 16.8542 19.4375 16.5625L20.6562 15.3438L19.3438 14.0312L18.125 15.25C18 15.375 17.8542 15.4635 17.6875 15.5156C17.5208 15.5677 17.3542 15.5938 17.1875 15.5938C17.0208 15.5938 16.8542 15.5677 16.6875 15.5156C16.5208 15.4635 16.375 15.375 16.25 15.25L15.0625 14.0625C14.7708 13.7708 14.4271 13.5469 14.0312 13.3906C13.6354 13.2344 13.2292 13.1562 12.8125 13.1562C12.3958 13.1562 11.9896 13.2344 11.5938 13.3906C11.1979 13.5469 10.8542 13.7708 10.5625 14.0625L9.34375 15.2812L10.6562 16.5938L11.875 15.375C12 15.25 12.1458 15.1615 12.3125 15.1094C12.4792 15.0573 12.6458 15.0312 12.8125 15.0312C12.9792 15.0312 13.1458 15.0573 13.3125 15.1094C13.4792 15.1615 13.625 15.25 13.75 15.375L14.9375 16.5625C15.2292 16.8542 15.5729 17.0833 15.9688 17.25C16.3646 17.4167 16.7708 17.5 17.1875 17.5ZM17.1875 13.75C17.6042 13.75 18.0104 13.6667 18.4062 13.5C18.8021 13.3333 19.1458 13.1042 19.4375 12.8125L20.6562 11.5938L19.3438 10.2812L18.125 11.5C18 11.625 17.8542 11.7135 17.6875 11.7656C17.5208 11.8177 17.3542 11.8438 17.1875 11.8438C17.0208 11.8438 16.8542 11.8177 16.6875 11.7656C16.5208 11.7135 16.375 11.625 16.25 11.5L15.0625 10.3125C14.7708 10.0208 14.4271 9.79688 14.0312 9.64062C13.6354 9.48438 13.2292 9.40625 12.8125 9.40625C12.3958 9.40625 11.9896 9.48438 11.5938 9.64062C11.1979 9.79688 10.8542 10.0208 10.5625 10.3125L9.34375 11.5312L10.6562 12.8438L11.875 11.625C12 11.5 12.1458 11.4115 12.3125 11.3594C12.4792 11.3073 12.6458 11.2812 12.8125 11.2812C12.9792 11.2812 13.1458 11.3073 13.3125 11.3594C13.4792 11.4115 13.625 11.5 13.75 11.625L14.9375 12.8125C15.2292 13.1042 15.5729 13.3333 15.9688 13.5C16.3646 13.6667 16.7708 13.75 17.1875 13.75ZM5 25V10L15 2.5L25 10V25H5Z" fill="white"/>
</svg>
