<svg xmlns="http://www.w3.org/2000/svg" width="75" height="76" fill="none"><path fill="#F90" d="M65.625 34.875H9.375C7.5 34.875 6.25 36.125 6.25 38s1.25 3.125 3.125 3.125h56.25c1.875 0 3.125-1.25 3.125-3.125s-1.25-3.125-3.125-3.125m-12.5 12.5h-31.25c-.937 0-1.562.313-2.187.938-1.25 1.25-1.25 3.124 0 4.374l15.625 15.626c.624.624 1.25.937 2.187.937.938 0 1.563-.312 2.188-.937l15.624-15.626c.626-.624.938-1.25.938-2.187 0-1.875-1.25-3.125-3.125-3.125m-5-21.875c0 1.875 1.25 3.125 3.125 3.125h1.875c.938 0 1.563-.312 2.188-.937 1.25-1.25 1.25-3.125 0-4.375l-2.188-2.188c-.937-.937-2.5-1.25-3.75-.625-1.562.625-2.187 2.5-1.25 4.063zm-11.875-10 1.25-1.25 2.5 2.5c.625.625 1.25.938 2.188.938.937 0 1.562-.313 2.187-.938 1.25-1.25 1.25-3.125 0-4.375l-3.437-3.437c-.313-.313-.626-.313-.938-.626 0-.312-.312-.624-.625-.937-1.25-1.25-3.125-1.25-4.375 0l-3.437 3.438c-1.25 1.25-1.25 3.124 0 4.374s3.75 1.563 4.687.313M22.188 28.625c.937 0 1.562-.312 2.187-.937l3.438-3.438c1.25-1.25 1.25-3.125 0-4.375s-3.125-1.25-4.375 0L19.688 23c-.313.625-.625 1.563-.625 2.188 0 1.875 1.25 3.125 3.125 3.437m11.875 0h4.687c1.875 0 3.125-1.25 3.125-3.125s-1.25-3.125-3.125-3.125h-4.687c-1.876 0-3.126 1.25-3.126 3.125s1.563 3.125 3.125 3.125"/></svg>