<svg xmlns="http://www.w3.org/2000/svg" width="75" height="76" fill="none"><path fill="#F90" d="M70.625 7.063c-.312-.938-1.25-1.875-2.187-2.188-13.126-3.437-26.563.625-35.625 11.25l-3.438 4.063-8.437-1.875c-4.063-1.563-8.438.312-10.313 4.062L3.75 34.563q-.937 1.405 0 2.812c.313.938 1.25 1.563 2.188 1.875l9.687 2.188c-.937 2.5-1.25 5-1.875 7.5 0 .937.313 1.874.938 2.5l9.687 9.687c.625.625 1.25.938 2.188.938h.312c2.813-.313 5.313-.626 7.813-1.563l1.874 9.375c.313.938.938 1.875 1.876 2.188.312.312.937.312 1.25.312.624 0 .937 0 1.562-.312l12.188-6.876c3.437-1.874 5.312-6.25 4.374-10.312l-2.187-8.75 3.75-3.437c10.313-8.75 14.688-22.813 11.25-35.625M22.813 28c-1.875 2.5-3.75 5-5 7.5l-6.563-1.562 4.688-8.438c.624-1.25 1.874-1.562 3.437-1.25l5.313 1.25zM50 59.563l-8.437 4.687-1.25-6.25c2.812-1.25 5.312-3.125 7.5-5L50 50.813l1.25 5.312c.625 1.563-.312 3.125-1.25 3.438M52.188 28c-2.5 0-4.688-2.187-4.688-4.687s2.188-4.688 4.688-4.688 4.687 2.188 4.687 4.688S55 28 52.188 28"/></svg>