<svg xmlns="http://www.w3.org/2000/svg" width="75" height="76" fill="none"><path fill="#F90" d="M61.25 11.75c-.625-.625-1.562-.937-2.5-.625-6.875 1.563-13.75 0-19.375-4.062-.937-.625-2.5-.625-3.437 0C30 11.125 23.124 12.688 16.25 11.125c-1.562-.312-3.437.938-3.75 2.5v24.063c0 9.062 4.375 17.5 11.875 22.812l11.563 8.125c.937.625 2.5.625 3.75 0L51.25 60.5c7.5-5.312 11.875-13.75 11.875-22.812V14.25c-.625-.937-.937-1.875-1.875-2.5m-17.5 29.375h-3.125v3.125c0 1.875-1.25 3.125-3.125 3.125s-3.125-1.25-3.125-3.125v-3.125H31.25c-1.875 0-3.125-1.25-3.125-3.125s1.25-3.125 3.125-3.125h3.125V31.75c0-1.875 1.25-3.125 3.125-3.125s3.125 1.25 3.125 3.125v3.125h3.125c1.875 0 3.125 1.25 3.125 3.125s-1.25 3.125-3.125 3.125"/></svg>