<svg xmlns="http://www.w3.org/2000/svg" width="90" height="90" fill="none"><path fill="#fff" d="M42.354 20.43h-3.518a1.06 1.06 0 0 0-.9.496L2.54 76.976C1.44 78.723 2.693 81 4.758 81h23.264a2.62 2.62 0 0 0 2.567-2.082l12.222-57.925a.468.468 0 0 0-.457-.563M50.719 20.43h-3.005a.544.544 0 0 0-.54.635l9.815 57.942A2.39 2.39 0 0 0 59.35 81h26.28a2.393 2.393 0 0 0 2.015-3.682l-36.17-56.474a.9.9 0 0 0-.757-.414M45.139 20.43h-.526L42.03 78.944A1.97 1.97 0 0 0 43.997 81h1.39a1.97 1.97 0 0 0 1.966-2.043z"/></svg>