<svg xmlns="http://www.w3.org/2000/svg" width="23" height="17" fill="none"><path fill="#A6A6A6" d="M.535 16.5v-2.8q0-.85.438-1.562.437-.713 1.162-1.088a14.8 14.8 0 0 1 3.15-1.163 13.8 13.8 0 0 1 3.25-.387q1.65 0 3.25.387 1.6.388 3.15 1.163.724.375 1.163 1.087.437.713.437 1.563v2.8zm18 0v-3q0-1.1-.612-2.113-.613-1.012-1.738-1.737 1.275.15 2.4.512 1.125.363 2.1.888.9.5 1.375 1.112.475.614.475 1.338v3zm-10-8q-1.65 0-2.825-1.175T4.535 4.5 5.71 1.675 8.535.5t2.825 1.175T12.535 4.5 11.36 7.325 8.535 8.5m10-4q0 1.65-1.175 2.825T14.535 8.5q-.275 0-.7-.062a6 6 0 0 1-.7-.138 6 6 0 0 0 1.038-1.775q.362-.975.362-2.025t-.362-2.025A6 6 0 0 0 13.135.7a3 3 0 0 1 .7-.162q.35-.038.7-.038 1.65 0 2.825 1.175T18.535 4.5"/></svg>