<svg xmlns="http://www.w3.org/2000/svg" width="90" height="90" fill="none"><path fill="#fff" d="M30 26.25q-4.687 0-7.969-3.281-3.28-3.282-3.281-7.969 0-4.687 3.281-7.969Q25.313 3.751 30 3.75q3.562 0 6.469 2.11 2.906 2.108 4.218 5.39H71.25v7.5H67.5v7.5H60v-7.5H40.688q-1.313 3.281-4.22 5.39-2.906 2.11-6.468 2.11m0-7.5q1.594 0 2.672-1.078T33.75 15t-1.078-2.672T30 11.25t-2.672 1.078T26.25 15t1.078 2.672Q28.407 18.75 30 18.75m3.75 46.875q1.594 0 2.672-1.078t1.078-2.672-1.078-2.672-2.672-1.078-2.672 1.078T30 61.875t1.078 2.672q1.079 1.078 2.672 1.078m22.5 0q1.594 0 2.672-1.078T60 61.875t-1.078-2.672-2.672-1.078-2.672 1.078-1.078 2.672 1.078 2.672q1.079 1.078 2.672 1.078M18.75 54.75l6.188-18a4.7 4.7 0 0 1 1.546-2.156q1.08-.844 2.391-.844h32.25q1.313 0 2.39.844a4.7 4.7 0 0 1 1.547 2.156l6.188 18V79.5q0 1.313-.844 2.156-.843.844-2.156.844h-1.5q-1.313 0-2.156-.844-.844-.843-.844-2.156V75h-37.5v4.5q0 1.313-.844 2.156-.843.844-2.156.844h-1.5q-1.313 0-2.156-.844-.844-.843-.844-2.156zm9.938-6h32.624l-2.624-7.5H31.312zM26.25 67.5h37.5V56.25h-37.5z"/></svg>