<svg width="101" height="100" viewBox="0 0 101 100" fill="none" xmlns="http://www.w3.org/2000/svg">
<path d="M50.7503 91.6667C48.9448 91.6667 47.3128 91.2327 45.8545 90.3646C44.3962 89.4966 43.2503 88.3334 42.417 86.875C40.1253 86.875 38.1635 86.0591 36.5316 84.4271C34.8996 82.7952 34.0837 80.8334 34.0837 78.5417V63.75C29.9864 61.0417 26.7052 57.4653 24.2399 53.0209C21.7746 48.5764 20.542 43.75 20.542 38.5417C20.542 30.1389 23.476 23.0035 29.3441 17.1355C35.2121 11.2674 42.3475 8.33337 50.7503 8.33337C59.1531 8.33337 66.2885 11.2674 72.1566 17.1355C78.0246 23.0035 80.9587 30.1389 80.9587 38.5417C80.9587 43.8889 79.726 48.75 77.2607 53.125C74.7955 57.5 71.5142 61.0417 67.417 63.75V78.5417C67.417 80.8334 66.601 82.7952 64.9691 84.4271C63.3371 86.0591 61.3753 86.875 59.0837 86.875C58.2503 88.3334 57.1045 89.4966 55.6462 90.3646C54.1878 91.2327 52.5559 91.6667 50.7503 91.6667ZM42.417 78.5417H59.0837V74.7917H42.417V78.5417ZM42.417 70.625H59.0837V66.6667H42.417V70.625ZM53.8753 58.3334V47.0834L63.042 37.9167L58.667 33.5417L50.7503 41.4584L42.8337 33.5417L38.4587 37.9167L47.6253 47.0834V58.3334H53.8753Z" fill="#FF9900"/>
</svg>
