<?xml version="1.0" encoding="iso-8859-1"?>
<!-- Uploaded to: SVG Repo, www.svgrepo.com, Generator: SVG Repo Mixer Tools -->
<!DOCTYPE svg PUBLIC "-//W3C//DTD SVG 1.1//EN" "http://www.w3.org/Graphics/SVG/1.1/DTD/svg11.dtd">
<svg fill="white" version="1.1" id="Capa_1" xmlns="http://www.w3.org/2000/svg" xmlns:xlink="http://www.w3.org/1999/xlink" 
	 width="30px" height="30px" viewBox="0 0 334.008 334.008"
	 xml:space="preserve">
<g>
	<path d="M119.58,159.816c-12.377,0-12.377,19.189,0,19.189C131.957,179.011,131.957,159.816,119.58,159.816z"/>
	<path d="M180.356,177.803c12.377,0,12.377-19.188,0-19.188C167.979,158.616,167.979,177.803,180.356,177.803z"/>
	<path d="M179.18,200.806c0-4.472-3.623-8.101-8.1-8.101c-3.602,0-6.652,2.348-7.707,5.596c-1.793,0.965-6.416,2.395-13.397,2.395
		s-11.609-1.435-13.397-2.395c-1.052-3.254-4.107-5.596-7.704-5.596c-4.478,0-8.1,3.629-8.1,8.101
		c0,11.116,14.666,16.089,29.207,16.089C164.525,216.895,179.18,211.917,179.18,200.806z"/>
	<path d="M294.737,183.741c3.102-5.621,4.884-12.07,4.884-18.926c0-21.353-17.086-38.794-38.301-39.366
		c-16.754-45.441-61.637-76.652-111.349-76.652c-3.251,0-6.473,0.146-9.677,0.409c-5.463-0.641-10.858-1.799-15.934-3.731
		c-8.366-3.18-21.719-14.33-10.871-23.554c8.59-7.306,24.495-9.402,35.142-6.033c5.714,1.809,13.165,7.182,4.807,11.491
		c-6.091,3.138-11.783,2.798-17.972,0.153c-8.543-3.657-12.625,10.162-4.195,13.774c10.413,4.456,23.316,3.731,32.374-3.546
		c6.479-5.208,11.385-15.008,6.365-22.995c-11.151-17.731-38.708-17.42-55.933-9.869c-16.973,7.441-26.13,30.238-10.583,44.489
		c2.489,2.278,5.271,4.143,8.166,5.817c-33.336,11.328-60.75,36.93-73.037,70.242c-21.215,0.572-38.301,18.014-38.301,39.366
		s17.086,38.792,38.295,39.367c16.757,45.446,61.631,76.654,111.354,76.654c8.701,0,17.231-1.007,25.513-2.826
		c10.6,32.463,41.133,56.004,77.087,56.004c44.729,0,81.116-36.387,81.116-81.116C333.687,223.625,318.045,198,294.737,183.741z
		 M252.571,317.813c-28.613,0-52.914-18.631-61.53-44.381c-1.714-5.11-2.774-10.505-3.164-16.09
		c-0.101-1.477-0.222-2.942-0.222-4.445c0-34.746,27.464-63.123,61.815-64.758c1.033-0.047,2.046-0.152,3.096-0.152
		c11.4,0,22.111,2.974,31.435,8.157c19.944,11.091,33.486,32.363,33.486,56.759C317.487,288.693,288.367,317.813,252.571,317.813z
		 M149.971,264.636c-44.845,0-85.108-29.311-97.907-71.276l-2.03-6.666l-6.89,1.013c-1.123,0.169-2.262,0.296-3.436,0.296
		c-12.78,0-23.182-10.399-23.182-23.183c0-12.78,10.402-23.182,23.182-23.182c1.173,0,2.312,0.124,3.436,0.298l6.89,1.015
		l2.03-6.663c12.799-41.972,53.062-71.281,97.907-71.281s85.114,29.31,97.907,71.281l2.035,6.663l6.888-1.015
		c1.123-0.169,2.262-0.298,3.433-0.298c12.783,0,23.183,10.402,23.183,23.182c0,4.351-1.282,8.38-3.375,11.86
		c-8.596-3.106-17.819-4.889-27.475-4.889c-44.725,0-81.114,36.382-81.114,81.111c0,3.143,0.222,6.228,0.572,9.275
		C164.871,263.745,157.494,264.636,149.971,264.636z"/>
	<path d="M285.446,233.575c0-13.257-7.9-24.674-19.228-29.868c-4.166-1.914-8.774-3.011-13.652-3.011
		c-2.643,0-5.194,0.348-7.657,0.938c-14.438,3.47-25.218,16.458-25.218,31.94c0,1.261,0.09,2.495,0.227,3.719
		c0.675,5.938,2.948,11.38,6.36,15.941c4.439,5.922,10.82,10.283,18.188,12.166v8.648h-6.945c-4.472,0-8.1,3.628-8.1,8.1
		s3.628,8.1,8.1,8.1h6.951v6.191c0,4.472,3.622,8.1,8.1,8.1s8.1-3.628,8.1-8.1v-6.191h6.951c4.477,0,8.1-3.628,8.1-8.1
		s-3.623-8.1-8.1-8.1h-6.951v-8.648C274.888,261.778,285.446,248.9,285.446,233.575z M235.891,233.575
		c0-9.196,7.478-16.68,16.675-16.68c0.996,0,1.956,0.127,2.9,0.296c7.81,1.382,13.779,8.179,13.779,16.384
		c0,9.197-7.478,16.675-16.675,16.675c-6.139,0-11.454-3.369-14.344-8.315C236.782,239.471,235.891,236.633,235.891,233.575z"/>
</g>
</svg>